<svg width="1219" height="465" viewBox="0 0 1219 465" fill="none" xmlns="http://www.w3.org/2000/svg">
<path d="M516.776 52.9665H485.304L484.203 159.929C482.864 209.219 488.428 232.132 492.669 237.385C509.276 269.306 537.757 275.721 549.922 274.939H651.034V224.308L549.922 104.604V237.385H516.776V52.9665Z" fill="#1A3B6E"/>
<path d="M651.034 171.329L549.922 52.9665V2H651.034C704.335 8.70611 718.554 52.8547 719 74.0907V224.308H684.85V39.2189H651.034V171.329Z" fill="#1A3B6E"/>
<path d="M516.776 52.9665H485.304L484.203 159.929C482.864 209.219 488.428 232.132 492.669 237.385C509.276 269.306 537.757 275.721 549.922 274.939H651.034V224.308L549.922 104.604V237.385H516.776V52.9665Z" stroke="#1A3B6E" stroke-width="3"/>
<path d="M651.034 171.329L549.922 52.9665V2H651.034C704.335 8.70611 718.554 52.8547 719 74.0907V224.308H684.85V39.2189H651.034V171.329Z" stroke="#1A3B6E" stroke-width="3"/>
<path d="M51.264 350.872H61.728V427H53.28L18.144 372.856V427H7.68V350.872H16.032L51.264 405.112V350.872ZM79.167 427V350.872H91.263V427H79.167ZM149.831 427H109.415V350.872H121.511V416.536H149.831V427ZM159.303 427V350.872H171.399V383.32H187.047C187.495 383.32 187.783 383.224 187.911 383.032C188.039 382.776 188.199 382.424 188.391 381.976L201.543 350.872H213.639L201.735 378.424C200.519 381.24 199.431 383.448 198.471 385.048C197.575 386.584 196.327 387.736 194.727 388.504C196.519 389.208 197.927 390.36 198.951 391.96C200.039 393.56 201.287 395.8 202.695 398.68L216.519 427H203.655L188.391 395.032C188.199 394.584 188.039 394.264 187.911 394.072C187.783 393.88 187.463 393.784 186.951 393.784H171.399V427H159.303ZM266.411 427L262.091 407.896H233.003L228.107 427H216.875L234.251 362.776C235.147 359.512 236.075 357.016 237.035 355.288C237.995 353.496 239.371 352.248 241.163 351.544C242.955 350.84 245.451 350.52 248.651 350.584L260.555 350.872L278.507 427H266.411ZM244.811 362.584L235.595 397.528H259.787L251.435 361.24H246.155C245.387 361.24 244.939 361.688 244.811 362.584ZM330.827 350.872H341.291V427H332.843L297.707 372.856V427H287.243V350.872H295.595L330.827 405.112V350.872ZM443.954 350.872H455.954V427H443.954V393.592H414.386V427H402.29V350.872H414.386V383.128H443.954V350.872ZM550.59 350.872C553.47 350.872 555.486 351.512 556.638 352.792C557.854 354.008 558.462 355.992 558.462 358.744V427H546.846V369.688L529.278 403.672H522.174L505.182 370.072V427H494.526V350.872H501.054C503.166 350.872 504.702 351.224 505.662 351.928C506.622 352.568 507.518 353.784 508.35 355.576L526.494 390.328L546.942 350.872H550.59ZM574.415 427V350.872H617.519V361.336H586.511V383.224H615.406V393.592H586.511V416.536H618.191V427H574.415ZM630.383 350.872L663.695 350.296C669.775 350.168 674.255 351.448 677.135 354.136C680.079 356.76 681.551 360.952 681.551 366.712V411.16C681.551 416.984 680.047 421.208 677.039 423.832C674.031 426.392 669.455 427.64 663.311 427.576L630.383 427V350.872ZM642.479 360.856V417.016H667.727C668.751 417.016 669.263 416.504 669.263 415.48V362.392C669.263 361.368 668.751 360.856 667.727 360.856H642.479ZM698.667 427V350.872H710.763V427H698.667ZM770.579 427H744.755C738.931 427 734.611 425.784 731.795 423.352C728.979 420.856 727.571 416.984 727.571 411.736V366.232C727.571 360.92 728.979 357.048 731.795 354.616C734.611 352.12 738.931 350.872 744.755 350.872H770.579V361.72H741.203C740.307 361.72 739.859 362.168 739.859 363.064V414.904C739.859 415.736 740.307 416.152 741.203 416.152H770.579V427ZM779.981 365.272C779.981 359.96 781.357 356.088 784.109 353.656C786.925 351.224 791.245 350.008 797.069 350.008H816.845C822.605 350.008 826.893 351.224 829.709 353.656C832.525 356.088 833.933 359.96 833.933 365.272V412.696C833.933 417.944 832.525 421.784 829.709 424.216C826.893 426.648 822.605 427.864 816.845 427.864H797.069C791.245 427.864 786.925 426.648 784.109 424.216C781.357 421.784 779.981 417.944 779.981 412.696V365.272ZM793.517 360.856C792.685 360.856 792.269 361.272 792.269 362.104V415.768C792.269 416.6 792.685 417.016 793.517 417.016H820.301C821.133 417.016 821.549 416.6 821.549 415.768V362.104C821.549 361.272 821.133 360.856 820.301 360.856H793.517ZM872.171 427V350.872L904.331 350.392C910.283 350.264 914.763 351.608 917.771 354.424C920.779 357.176 922.283 361.272 922.283 366.712V382.264C922.283 387.384 920.779 391.448 917.771 394.456C914.763 397.4 910.283 398.872 904.331 398.872H884.267V427H872.171ZM908.363 360.952H884.267V388.408H908.363C909.387 388.408 909.899 387.896 909.899 386.872V362.488C909.899 361.464 909.387 360.952 908.363 360.952ZM956.794 427.288L944.314 427L926.746 350.872H938.65L953.53 416.536H958.33C959.098 416.536 959.514 416.088 959.578 415.192L975.514 350.872H986.842L970.426 414.808C969.594 418.2 968.73 420.824 967.834 422.68C966.938 424.472 965.658 425.688 963.994 426.328C962.33 426.968 959.93 427.288 956.794 427.288ZM1006.95 427V361.336H988.42V350.872H1037.48V361.336H1019.04V427H1006.95ZM1043.56 427V413.464H1054.89V427H1043.56ZM1108.89 427H1068.48V350.872H1080.57V416.536H1108.89V427ZM1120.29 427V361.336H1101.76V350.872H1150.82V361.336H1132.39V427H1120.29ZM1159.98 350.872L1193.29 350.296C1199.37 350.168 1203.85 351.448 1206.73 354.136C1209.67 356.76 1211.15 360.952 1211.15 366.712V411.16C1211.15 416.984 1209.64 421.208 1206.63 423.832C1203.63 426.392 1199.05 427.64 1192.91 427.576L1159.98 427V350.872ZM1172.07 360.856V417.016H1197.32C1198.35 417.016 1198.86 416.504 1198.86 415.48V362.392C1198.86 361.368 1198.35 360.856 1197.32 360.856H1172.07Z" fill="#1A3B6E"/>
<path d="M358 295H384V427H379C367.402 427 358 417.598 358 406V295Z" fill="#1A3B6E"/>
<rect x="335" y="345" width="23" height="73" transform="rotate(-90 335 345)" fill="#1A3B6E"/>
</svg>
