<svg width="25" height="22" viewBox="0 0 25 22" fill="none" xmlns="http://www.w3.org/2000/svg">
<rect width="25" height="22" fill="#1E1E1E"/>
<path d="M13.5625 14.75C13.6122 14.75 13.6599 14.7302 13.6951 14.6951C13.7302 14.6599 13.75 14.6122 13.75 14.5625V10.8125C13.75 10.709 13.8342 10.625 13.9375 10.625H15.0625C15.1658 10.625 15.25 10.709 15.25 10.8125V11.5625H14.6875C14.6378 11.5625 14.5901 11.5823 14.5549 11.6174C14.5198 11.6526 14.5 11.7003 14.5 11.75C14.5 11.7997 14.5198 11.8474 14.5549 11.8826C14.5901 11.9177 14.6378 11.9375 14.6875 11.9375H15.25V12.6875H14.6875C14.6378 12.6875 14.5901 12.7073 14.5549 12.7424C14.5198 12.7776 14.5 12.8253 14.5 12.875C14.5 12.9247 14.5198 12.9724 14.5549 13.0076C14.5901 13.0427 14.6378 13.0625 14.6875 13.0625H15.25V13.8125H14.6875C14.6378 13.8125 14.5901 13.8323 14.5549 13.8674C14.5198 13.9026 14.5 13.9503 14.5 14C14.5 14.0497 14.5198 14.0974 14.5549 14.1326C14.5901 14.1677 14.6378 14.1875 14.6875 14.1875H15.25V14.5625C15.25 14.6122 15.2698 14.6599 15.3049 14.6951C15.3401 14.7302 15.3878 14.75 15.4375 14.75C15.4872 14.75 15.5349 14.7302 15.5701 14.6951C15.6052 14.6599 15.625 14.6122 15.625 14.5625V10.8125C15.625 10.5024 15.3726 10.25 15.0625 10.25V9.3125C15.0625 9.26277 15.0427 9.21508 15.0076 9.17992C14.9724 9.14475 14.9247 9.125 14.875 9.125H14.6875V8.1875C14.6875 8.13777 14.6677 8.09008 14.6326 8.05492C14.5974 8.01975 14.5497 8 14.5 8C14.4503 8 14.4026 8.01975 14.3674 8.05492C14.3323 8.09008 14.3125 8.13777 14.3125 8.1875V9.125H14.125C14.0753 9.125 14.0276 9.14475 13.9924 9.17992C13.9573 9.21508 13.9375 9.26277 13.9375 9.3125V10.25C13.6274 10.25 13.375 10.5024 13.375 10.8125V14.5625C13.375 14.6122 13.3948 14.6599 13.4299 14.6951C13.4651 14.7302 13.5128 14.75 13.5625 14.75ZM14.3125 9.5H14.6875V10.25H14.3125V9.5ZM15.8125 15.125H13.1875C13.1378 15.125 13.0901 15.1448 13.0549 15.1799C13.0198 15.2151 13 15.2628 13 15.3125C13 15.3622 13.0198 15.4099 13.0549 15.4451C13.0901 15.4802 13.1378 15.5 13.1875 15.5H14.3125V16.625H13.5625C13.5128 16.625 13.4651 16.6448 13.4299 16.6799C13.3948 16.7151 13.375 16.7628 13.375 16.8125C13.375 16.8622 13.3948 16.9099 13.4299 16.9451C13.4651 16.9802 13.5128 17 13.5625 17H15.4375C15.4872 17 15.5349 16.9802 15.5701 16.9451C15.6052 16.9099 15.625 16.8622 15.625 16.8125C15.625 16.7628 15.6052 16.7151 15.5701 16.6799C15.5349 16.6448 15.4872 16.625 15.4375 16.625H14.6875V15.5H15.8125C15.8622 15.5 15.9099 15.4802 15.9451 15.4451C15.9802 15.4099 16 15.3622 16 15.3125C16 15.2628 15.9802 15.2151 15.9451 15.1799C15.9099 15.1448 15.8622 15.125 15.8125 15.125ZM10.1875 12.875V13.25C10.1875 13.4568 10.3557 13.625 10.5625 13.625H12.0625C12.2693 13.625 12.4375 13.4568 12.4375 13.25V12.875C12.4375 12.6682 12.2693 12.5 12.0625 12.5H10.5625C10.3557 12.5 10.1875 12.6682 10.1875 12.875ZM12.0627 13.25H10.5625V12.875H12.0625L12.0627 13.25ZM11.875 14C11.8253 14 11.7776 14.0198 11.7424 14.0549C11.7073 14.0901 11.6875 14.1378 11.6875 14.1875C11.6875 14.2372 11.7073 14.2849 11.7424 14.3201C11.7776 14.3552 11.8253 14.375 11.875 14.375C12.0818 14.375 12.25 14.5432 12.25 14.75V16.4375C12.25 16.541 12.1658 16.625 12.0625 16.625H10.5625C10.4592 16.625 10.375 16.541 10.375 16.4375V16.25H11.6875C11.7372 16.25 11.7849 16.2302 11.8201 16.1951C11.8552 16.1599 11.875 16.1122 11.875 16.0625C11.875 16.0128 11.8552 15.9651 11.8201 15.9299C11.7849 15.8948 11.7372 15.875 11.6875 15.875H10.375V15.125H11.6875C11.7372 15.125 11.7849 15.1052 11.8201 15.0701C11.8552 15.0349 11.875 14.9872 11.875 14.9375C11.875 14.8878 11.8552 14.8401 11.8201 14.8049C11.7849 14.7698 11.7372 14.75 11.6875 14.75H10.375C10.375 14.5432 10.5432 14.375 10.75 14.375C10.7997 14.375 10.8474 14.3552 10.8826 14.3201C10.9177 14.2849 10.9375 14.2372 10.9375 14.1875C10.9375 14.1378 10.9177 14.0901 10.8826 14.0549C10.8474 14.0198 10.7997 14 10.75 14C10.3364 14 10 14.3364 10 14.75V16.4375C10 16.7476 10.2524 17 10.5625 17H12.0625C12.3726 17 12.625 16.7476 12.625 16.4375V14.75C12.625 14.3364 12.2886 14 11.875 14Z" fill="white"/>
<path d="M13 5.9375C13 5.62737 12.7116 5.375 12.3571 5.375H10.2143V5.1875C10.2143 5.13777 10.1917 5.09008 10.1515 5.05492C10.1113 5.01975 10.0568 5 10 5H7C6.94317 5 6.88866 5.01975 6.84848 5.05492C6.80829 5.09008 6.78571 5.13777 6.78571 5.1875V5.375H4.64286C4.28843 5.375 4 5.62737 4 5.9375V16.4375C4 16.7476 4.28843 17 4.64286 17H8.92857C8.9854 17 9.03991 16.9802 9.08009 16.9451C9.12028 16.9099 9.14286 16.8622 9.14286 16.8125C9.14286 16.7628 9.12028 16.7151 9.08009 16.6799C9.03991 16.6448 8.9854 16.625 8.92857 16.625H4.64286C4.52479 16.625 4.42857 16.541 4.42857 16.4375V5.9375C4.42857 5.834 4.52479 5.75 4.64286 5.75H6.78571V6.3125C6.78571 6.36223 6.80829 6.40992 6.84848 6.44508C6.88866 6.48025 6.94317 6.5 7 6.5H10C10.0568 6.5 10.1113 6.48025 10.1515 6.44508C10.1917 6.40992 10.2143 6.36223 10.2143 6.3125V5.75H12.3571C12.4752 5.75 12.5714 5.834 12.5714 5.9375V11.75C12.5714 11.7997 12.594 11.8474 12.6342 11.8826C12.6744 11.9177 12.7289 11.9375 12.7857 11.9375C12.8425 11.9375 12.8971 11.9177 12.9372 11.8826C12.9774 11.8474 13 11.7997 13 11.75V5.9375ZM9.78571 6.125H7.21429V5.375H9.78571V6.125Z" fill="white"/>
<path d="M7.33333 9.76318C7.33333 9.71432 7.30875 9.66747 7.26499 9.63292C7.22123 9.59838 7.16188 9.57897 7.1 9.57897H5.23333C5.17145 9.57897 5.1121 9.59838 5.06834 9.63292C5.02458 9.66747 5 9.71432 5 9.76318V11.2369C5 11.2857 5.02458 11.3326 5.06834 11.3671C5.1121 11.4017 5.17145 11.4211 5.23333 11.4211H7.1C7.16188 11.4211 7.22123 11.4017 7.26499 11.3671C7.30875 11.3326 7.33333 11.2857 7.33333 11.2369V9.76318ZM6.86667 11.0526H5.46667V9.94739H6.86667V11.0526ZM8.5 7.73688H11.7667C11.8286 7.73688 11.8879 7.71747 11.9317 7.68292C11.9754 7.64838 12 7.60152 12 7.55267C12 7.50381 11.9754 7.45696 11.9317 7.42241C11.8879 7.38786 11.8286 7.36846 11.7667 7.36846H8.5C8.43812 7.36846 8.37877 7.38786 8.33501 7.42241C8.29125 7.45696 8.26667 7.50381 8.26667 7.55267C8.26667 7.60152 8.29125 7.64838 8.33501 7.68292C8.37877 7.71747 8.43812 7.73688 8.5 7.73688ZM8.5 8.47371H10.8333C10.8952 8.47371 10.9546 8.45431 10.9983 8.41976C11.0421 8.38521 11.0667 8.33836 11.0667 8.2895C11.0667 8.24065 11.0421 8.19379 10.9983 8.15925C10.9546 8.1247 10.8952 8.10529 10.8333 8.10529H8.5C8.43812 8.10529 8.37877 8.1247 8.33501 8.15925C8.29125 8.19379 8.26667 8.24065 8.26667 8.2895C8.26667 8.33836 8.29125 8.38521 8.33501 8.41976C8.37877 8.45431 8.43812 8.47371 8.5 8.47371ZM8.5 10.3158H11.7667C11.8286 10.3158 11.8879 10.2964 11.9317 10.2619C11.9754 10.2273 12 10.1805 12 10.1316C12 10.0827 11.9754 10.0359 11.9317 10.0013C11.8879 9.9668 11.8286 9.94739 11.7667 9.94739H8.5C8.43812 9.94739 8.37877 9.9668 8.33501 10.0013C8.29125 10.0359 8.26667 10.0827 8.26667 10.1316C8.26667 10.1805 8.29125 10.2273 8.33501 10.2619C8.37877 10.2964 8.43812 10.3158 8.5 10.3158ZM8.5 11.0526H10.8333C10.8952 11.0526 10.9546 11.0332 10.9983 10.9987C11.0421 10.9641 11.0667 10.9173 11.0667 10.8684C11.0667 10.8196 11.0421 10.7727 10.9983 10.7382C10.9546 10.7036 10.8952 10.6842 10.8333 10.6842H8.5C8.43812 10.6842 8.37877 10.7036 8.33501 10.7382C8.29125 10.7727 8.26667 10.8196 8.26667 10.8684C8.26667 10.9173 8.29125 10.9641 8.33501 10.9987C8.37877 11.0332 8.43812 11.0526 8.5 11.0526ZM7.1 12.1579H5.23333C5.17145 12.1579 5.1121 12.1773 5.06834 12.2119C5.02458 12.2464 5 12.2933 5 12.3421V13.8158C5 13.8646 5.02458 13.9115 5.06834 13.946C5.1121 13.9806 5.17145 14 5.23333 14H7.1C7.16188 14 7.22123 13.9806 7.26499 13.946C7.30875 13.9115 7.33333 13.8646 7.33333 13.8158V12.3421C7.33333 12.2933 7.30875 12.2464 7.26499 12.2119C7.22123 12.1773 7.16188 12.1579 7.1 12.1579ZM6.86667 13.6316H5.46667V12.5263H6.86667V13.6316ZM7.73163 7.05401C7.70998 7.03689 7.68427 7.02331 7.65596 7.01404C7.62765 7.00477 7.59731 7 7.56667 7C7.53602 7 7.50568 7.00477 7.47737 7.01404C7.44906 7.02331 7.42335 7.03689 7.4017 7.05401L6.4 7.84482L6.0983 7.60664C6.07664 7.58954 6.05092 7.57597 6.02261 7.56671C5.99431 7.55746 5.96397 7.55269 5.93333 7.55269C5.9027 7.55269 5.87236 7.55746 5.84405 7.56671C5.81575 7.57597 5.79003 7.58954 5.76837 7.60664C5.7467 7.62374 5.72952 7.64405 5.71779 7.66639C5.70607 7.68874 5.70004 7.71269 5.70004 7.73688C5.70004 7.76106 5.70607 7.78501 5.71779 7.80736C5.72952 7.8297 5.7467 7.85001 5.76837 7.86711L6.23503 8.23553C6.25665 8.2527 6.28236 8.26632 6.31067 8.27561C6.33898 8.28491 6.36934 8.28969 6.4 8.28969C6.43066 8.28969 6.46102 8.28491 6.48933 8.27561C6.51764 8.26632 6.54335 8.2527 6.56497 8.23553L7.73163 7.31448C7.75332 7.29739 7.77053 7.27709 7.78227 7.25474C7.794 7.23239 7.80005 7.20844 7.80005 7.18425C7.80005 7.16005 7.794 7.1361 7.78227 7.11375C7.77053 7.0914 7.75332 7.0711 7.73163 7.05401Z" fill="white"/>
</svg>
